<svg width="30" height="30" viewBox="0 0 30 30" fill="none" xmlns="http://www.w3.org/2000/svg">
<rect width="30" height="30" rx="15" fill="#445BC1"/>
<g clip-path="url(#clip0_7541_4416)">
<path d="M18.2417 15.6472C18.2417 17.159 17.0118 18.3889 15.5 18.3889C13.9882 18.3889 12.7588 17.159 12.7588 15.6472C12.7588 14.1354 13.9882 12.9055 15.5 12.9055C17.0118 12.9055 18.2417 14.1359 18.2417 15.6472ZM24 11.7541V19.5412C24 20.5794 23.1583 21.421 22.1202 21.421H8.8798C7.84168 21.421 7 20.5794 7 19.5412V11.7541C7 10.716 7.84168 9.87434 8.8798 9.87434H11.192V9.22393C11.192 8.31551 11.9279 7.5791 12.8368 7.5791H18.1632C19.0721 7.5791 19.808 8.31551 19.808 9.22393V9.87387H22.1202C23.1583 9.87434 24 10.716 24 11.7541ZM19.6515 15.6472C19.6515 13.3581 17.7891 11.4957 15.5 11.4957C13.2113 11.4957 11.3489 13.3581 11.3489 15.6472C11.3489 17.9363 13.2113 19.7988 15.5 19.7988C17.7891 19.7988 19.6515 17.9363 19.6515 15.6472Z" fill="white"/>
</g>
<defs>
<clipPath id="clip0_7541_4416">
<rect width="17" height="17" fill="white" transform="translate(7 6)"/>
</clipPath>
</defs>
</svg>
