<svg width="14" height="14" viewBox="0 0 14 14" fill="none" xmlns="http://www.w3.org/2000/svg">
<path fill-rule="evenodd" clip-rule="evenodd" d="M7.34576 2.19006e-05L7.73404 0.00108421C11.1089 0.187292 13.8036 2.88202 13.9908 6.29537L13.9908 6.6433C13.9935 7.6767 13.7521 8.69611 13.2875 9.61585C12.1625 11.8668 9.86248 13.2892 7.34758 13.2902C6.48642 13.2924 5.63497 13.1251 4.84127 12.7997L4.64227 12.7131L0.921886 13.9538C0.399917 14.1278 -0.0978217 13.6617 0.0165398 13.1433L0.0371045 13.069L1.27706 9.34789L1.19119 9.14961C0.898285 8.43531 0.733487 7.67438 0.705092 6.90249L0.700691 6.64484C0.701664 4.12839 2.12404 1.82837 4.37237 0.7047C5.29476 0.238797 6.31417 -0.0026478 7.34576 2.19006e-05ZM7.67517 1.39906L7.34391 1.39906C6.53084 1.39696 5.72878 1.58692 5.0004 1.95482C3.22331 2.84298 2.10038 4.65878 2.0996 6.64701C2.09748 7.46006 2.28745 8.26212 2.65401 8.98785C2.7381 9.15432 2.75222 9.34748 2.69324 9.52441L1.80583 12.1844L4.46649 11.2977C4.61393 11.2485 4.77264 11.2501 4.91779 11.3007L5.00305 11.3369C5.72878 11.7035 6.53084 11.8934 7.34544 11.8913C9.33212 11.8905 11.1479 10.7676 12.0374 8.98785C12.404 8.26213 12.5939 7.46007 12.5918 6.64519L12.5929 6.33398C12.446 3.67115 10.3198 1.54492 7.65692 1.398L7.67517 1.39906Z" fill="#A3A3A3"/>
</svg>
