<svg width="18" height="18" viewBox="0 0 18 18" fill="none" xmlns="http://www.w3.org/2000/svg">
<g clip-path="url(#clip0_123_4055)">
<path d="M15.4016 9.60938H14.0095C14.1514 9.99787 14.2289 10.4171 14.2289 10.8541V16.1156C14.2289 16.2977 14.1972 16.4726 14.1395 16.6353H16.441C17.3008 16.6353 18.0002 15.9358 18.0002 15.0761V12.2079C18.0002 10.7751 16.8345 9.60938 15.4016 9.60938Z" fill="black"/>
<path d="M3.77125 10.8541C3.77125 10.4171 3.84878 9.99787 3.99068 9.60938H2.59855C1.16571 9.60938 0 10.7751 0 12.2079V15.0762C0 15.9359 0.699404 16.6353 1.55913 16.6353H3.86066C3.80297 16.4726 3.77125 16.2977 3.77125 16.1156V10.8541Z" fill="black"/>
<path d="M10.5918 8.25586H7.40922C5.97638 8.25586 4.81067 9.42157 4.81067 10.8544V16.1158C4.81067 16.4028 5.04335 16.6356 5.33038 16.6356H12.6707C12.9577 16.6356 13.1904 16.4029 13.1904 16.1158V10.8544C13.1904 9.42157 12.0247 8.25586 10.5918 8.25586Z" fill="black"/>
<path d="M9.00136 1.36572C7.27818 1.36572 5.87628 2.76762 5.87628 4.49084C5.87628 5.65967 6.5214 6.6805 7.47412 7.21645C7.92601 7.47064 8.44699 7.61592 9.00136 7.61592C9.55574 7.61592 10.0767 7.47064 10.5286 7.21645C11.4814 6.6805 12.1264 5.65964 12.1264 4.49084C12.1264 2.76766 10.7245 1.36572 9.00136 1.36572Z" fill="black"/>
<path d="M3.51293 4.27832C2.2242 4.27832 1.17578 5.32674 1.17578 6.61547C1.17578 7.90419 2.2242 8.95261 3.51293 8.95261C3.83983 8.95261 4.15112 8.8849 4.4339 8.76318C4.92281 8.55269 5.32594 8.18008 5.57538 7.71336C5.75047 7.38579 5.85008 7.01209 5.85008 6.61547C5.85008 5.32678 4.80166 4.27832 3.51293 4.27832Z" fill="black"/>
<path d="M14.4872 4.27832C13.1985 4.27832 12.1501 5.32674 12.1501 6.61547C12.1501 7.01212 12.2497 7.38582 12.4248 7.71336C12.6742 8.18012 13.0773 8.55272 13.5663 8.76318C13.849 8.8849 14.1603 8.95261 14.4872 8.95261C15.776 8.95261 16.8244 7.90419 16.8244 6.61547C16.8244 5.32674 15.776 4.27832 14.4872 4.27832Z" fill="black"/>
</g>
<defs>
<clipPath id="clip0_123_4055">
<rect width="18.001" height="18.001" fill="white"/>
</clipPath>
</defs>
</svg>
