<svg width="177" height="18" viewBox="0 0 177 18" fill="none" xmlns="http://www.w3.org/2000/svg">
    <path d="M3.536 2.528V7.424H9.296V9.656H3.536V14.768H10.016V17H0.8V0.295999H10.016V2.528H3.536ZM27.0899 17H24.3539L16.1219 4.544V17H13.3859V0.295999H16.1219L24.3539 12.728V0.295999H27.0899V17ZM42.7548 5.12C42.3228 4.288 41.7228 3.664 40.9548 3.248C40.1868 2.816 39.2988 2.6 38.2908 2.6C37.1868 2.6 36.2028 2.848 35.3388 3.344C34.4748 3.84 33.7948 4.544 33.2988 5.456C32.8188 6.368 32.5788 7.424 32.5788 8.624C32.5788 9.824 32.8188 10.888 33.2988 11.816C33.7948 12.728 34.4748 13.432 35.3388 13.928C36.2028 14.424 37.1868 14.672 38.2908 14.672C39.7788 14.672 40.9868 14.256 41.9148 13.424C42.8428 12.592 43.4108 11.464 43.6188 10.04H37.3548V7.856H46.5468V9.992C46.3708 11.288 45.9068 12.48 45.1548 13.568C44.4188 14.656 43.4508 15.528 42.2508 16.184C41.0668 16.824 39.7468 17.144 38.2908 17.144C36.7228 17.144 35.2908 16.784 33.9948 16.064C32.6988 15.328 31.6668 14.312 30.8988 13.016C30.1468 11.72 29.7708 10.256 29.7708 8.624C29.7708 6.992 30.1468 5.528 30.8988 4.232C31.6668 2.936 32.6988 1.928 33.9948 1.208C35.3068 0.471999 36.7388 0.103999 38.2908 0.103999C40.0668 0.103999 41.6428 0.543999 43.0188 1.424C44.4108 2.288 45.4188 3.52 46.0428 5.12H42.7548ZM59.3013 13.592H52.3173L51.1173 17H48.2613L54.2373 0.295999H57.4053L63.3813 17H60.5013L59.3013 13.592ZM58.5333 11.36L55.8213 3.608L53.0853 11.36H58.5333ZM78.0517 5.12C77.6197 4.288 77.0197 3.664 76.2517 3.248C75.4837 2.816 74.5957 2.6 73.5877 2.6C72.4837 2.6 71.4997 2.848 70.6357 3.344C69.7717 3.84 69.0917 4.544 68.5957 5.456C68.1157 6.368 67.8757 7.424 67.8757 8.624C67.8757 9.824 68.1157 10.888 68.5957 11.816C69.0917 12.728 69.7717 13.432 70.6357 13.928C71.4997 14.424 72.4837 14.672 73.5877 14.672C75.0757 14.672 76.2837 14.256 77.2117 13.424C78.1397 12.592 78.7077 11.464 78.9157 10.04H72.6517V7.856H81.8437V9.992C81.6677 11.288 81.2037 12.48 80.4517 13.568C79.7157 14.656 78.7477 15.528 77.5477 16.184C76.3637 16.824 75.0437 17.144 73.5877 17.144C72.0197 17.144 70.5877 16.784 69.2917 16.064C67.9957 15.328 66.9637 14.312 66.1957 13.016C65.4437 11.72 65.0677 10.256 65.0677 8.624C65.0677 6.992 65.4437 5.528 66.1957 4.232C66.9637 2.936 67.9957 1.928 69.2917 1.208C70.6037 0.471999 72.0357 0.103999 73.5877 0.103999C75.3637 0.103999 76.9397 0.543999 78.3157 1.424C79.7077 2.288 80.7157 3.52 81.3397 5.12H78.0517ZM87.2782 2.528V7.424H93.0382V9.656H87.2782V14.768H93.7582V17H84.5422V0.295999H93.7582V2.528H87.2782Z" fill="#300A48"/>
    <path d="M3.536 2.528V7.424H9.296V9.656H3.536V14.768H10.016V17H0.8V0.295999H10.016V2.528H3.536ZM27.0899 17H24.3539L16.1219 4.544V17H13.3859V0.295999H16.1219L24.3539 12.728V0.295999H27.0899V17ZM42.7548 5.12C42.3228 4.288 41.7228 3.664 40.9548 3.248C40.1868 2.816 39.2988 2.6 38.2908 2.6C37.1868 2.6 36.2028 2.848 35.3388 3.344C34.4748 3.84 33.7948 4.544 33.2988 5.456C32.8188 6.368 32.5788 7.424 32.5788 8.624C32.5788 9.824 32.8188 10.888 33.2988 11.816C33.7948 12.728 34.4748 13.432 35.3388 13.928C36.2028 14.424 37.1868 14.672 38.2908 14.672C39.7788 14.672 40.9868 14.256 41.9148 13.424C42.8428 12.592 43.4108 11.464 43.6188 10.04H37.3548V7.856H46.5468V9.992C46.3708 11.288 45.9068 12.48 45.1548 13.568C44.4188 14.656 43.4508 15.528 42.2508 16.184C41.0668 16.824 39.7468 17.144 38.2908 17.144C36.7228 17.144 35.2908 16.784 33.9948 16.064C32.6988 15.328 31.6668 14.312 30.8988 13.016C30.1468 11.72 29.7708 10.256 29.7708 8.624C29.7708 6.992 30.1468 5.528 30.8988 4.232C31.6668 2.936 32.6988 1.928 33.9948 1.208C35.3068 0.471999 36.7388 0.103999 38.2908 0.103999C40.0668 0.103999 41.6428 0.543999 43.0188 1.424C44.4108 2.288 45.4188 3.52 46.0428 5.12H42.7548ZM59.3013 13.592H52.3173L51.1173 17H48.2613L54.2373 0.295999H57.4053L63.3813 17H60.5013L59.3013 13.592ZM58.5333 11.36L55.8213 3.608L53.0853 11.36H58.5333ZM78.0517 5.12C77.6197 4.288 77.0197 3.664 76.2517 3.248C75.4837 2.816 74.5957 2.6 73.5877 2.6C72.4837 2.6 71.4997 2.848 70.6357 3.344C69.7717 3.84 69.0917 4.544 68.5957 5.456C68.1157 6.368 67.8757 7.424 67.8757 8.624C67.8757 9.824 68.1157 10.888 68.5957 11.816C69.0917 12.728 69.7717 13.432 70.6357 13.928C71.4997 14.424 72.4837 14.672 73.5877 14.672C75.0757 14.672 76.2837 14.256 77.2117 13.424C78.1397 12.592 78.7077 11.464 78.9157 10.04H72.6517V7.856H81.8437V9.992C81.6677 11.288 81.2037 12.48 80.4517 13.568C79.7157 14.656 78.7477 15.528 77.5477 16.184C76.3637 16.824 75.0437 17.144 73.5877 17.144C72.0197 17.144 70.5877 16.784 69.2917 16.064C67.9957 15.328 66.9637 14.312 66.1957 13.016C65.4437 11.72 65.0677 10.256 65.0677 8.624C65.0677 6.992 65.4437 5.528 66.1957 4.232C66.9637 2.936 67.9957 1.928 69.2917 1.208C70.6037 0.471999 72.0357 0.103999 73.5877 0.103999C75.3637 0.103999 76.9397 0.543999 78.3157 1.424C79.7077 2.288 80.7157 3.52 81.3397 5.12H78.0517ZM87.2782 2.528V7.424H93.0382V9.656H87.2782V14.768H93.7582V17H84.5422V0.295999H93.7582V2.528H87.2782Z" fill="#FFE600"/>
    <path d="M107.184 13.592H100.2L99.0001 17H96.1441L102.12 0.295999H105.288L111.264 17H108.384L107.184 13.592ZM106.416 11.36L103.704 3.608L100.968 11.36H106.416ZM124.639 0.319999V2.552H120.199V17H117.463V2.552H112.999V0.319999H124.639ZM140.729 0.319999V17H137.993V9.704H130.145V17H127.409V0.319999H130.145V7.472H137.993V0.319999H140.729ZM151.939 17.168C150.387 17.168 148.955 16.808 147.643 16.088C146.347 15.352 145.315 14.336 144.547 13.04C143.795 11.728 143.419 10.256 143.419 8.624C143.419 6.992 143.795 5.528 144.547 4.232C145.315 2.936 146.347 1.928 147.643 1.208C148.955 0.471999 150.387 0.103999 151.939 0.103999C153.507 0.103999 154.939 0.471999 156.235 1.208C157.547 1.928 158.579 2.936 159.331 4.232C160.083 5.528 160.459 6.992 160.459 8.624C160.459 10.256 160.083 11.728 159.331 13.04C158.579 14.336 157.547 15.352 156.235 16.088C154.939 16.808 153.507 17.168 151.939 17.168ZM151.939 14.792C153.043 14.792 154.027 14.544 154.891 14.048C155.755 13.536 156.427 12.816 156.907 11.888C157.403 10.944 157.651 9.856 157.651 8.624C157.651 7.392 157.403 6.312 156.907 5.384C156.427 4.456 155.755 3.744 154.891 3.248C154.027 2.752 153.043 2.504 151.939 2.504C150.835 2.504 149.851 2.752 148.987 3.248C148.123 3.744 147.443 4.456 146.947 5.384C146.467 6.312 146.227 7.392 146.227 8.624C146.227 9.856 146.467 10.944 146.947 11.888C147.443 12.816 148.123 13.536 148.987 14.048C149.851 14.544 150.835 14.792 151.939 14.792ZM176.856 17H174.12L165.888 4.544V17H163.152V0.295999H165.888L174.12 12.728V0.295999H176.856V17Z" fill="#300A48"/>
    <path d="M107.184 13.592H100.2L99.0001 17H96.1441L102.12 0.295999H105.288L111.264 17H108.384L107.184 13.592ZM106.416 11.36L103.704 3.608L100.968 11.36H106.416ZM124.639 0.319999V2.552H120.199V17H117.463V2.552H112.999V0.319999H124.639ZM140.729 0.319999V17H137.993V9.704H130.145V17H127.409V0.319999H130.145V7.472H137.993V0.319999H140.729ZM151.939 17.168C150.387 17.168 148.955 16.808 147.643 16.088C146.347 15.352 145.315 14.336 144.547 13.04C143.795 11.728 143.419 10.256 143.419 8.624C143.419 6.992 143.795 5.528 144.547 4.232C145.315 2.936 146.347 1.928 147.643 1.208C148.955 0.471999 150.387 0.103999 151.939 0.103999C153.507 0.103999 154.939 0.471999 156.235 1.208C157.547 1.928 158.579 2.936 159.331 4.232C160.083 5.528 160.459 6.992 160.459 8.624C160.459 10.256 160.083 11.728 159.331 13.04C158.579 14.336 157.547 15.352 156.235 16.088C154.939 16.808 153.507 17.168 151.939 17.168ZM151.939 14.792C153.043 14.792 154.027 14.544 154.891 14.048C155.755 13.536 156.427 12.816 156.907 11.888C157.403 10.944 157.651 9.856 157.651 8.624C157.651 7.392 157.403 6.312 156.907 5.384C156.427 4.456 155.755 3.744 154.891 3.248C154.027 2.752 153.043 2.504 151.939 2.504C150.835 2.504 149.851 2.752 148.987 3.248C148.123 3.744 147.443 4.456 146.947 5.384C146.467 6.312 146.227 7.392 146.227 8.624C146.227 9.856 146.467 10.944 146.947 11.888C147.443 12.816 148.123 13.536 148.987 14.048C149.851 14.544 150.835 14.792 151.939 14.792ZM176.856 17H174.12L165.888 4.544V17H163.152V0.295999H165.888L174.12 12.728V0.295999H176.856V17Z" fill="#FF8D00"/>
    <path d="M107.184 13.592H100.2L99.0001 17H96.1441L102.12 0.295999H105.288L111.264 17H108.384L107.184 13.592ZM106.416 11.36L103.704 3.608L100.968 11.36H106.416ZM124.639 0.319999V2.552H120.199V17H117.463V2.552H112.999V0.319999H124.639ZM140.729 0.319999V17H137.993V9.704H130.145V17H127.409V0.319999H130.145V7.472H137.993V0.319999H140.729ZM151.939 17.168C150.387 17.168 148.955 16.808 147.643 16.088C146.347 15.352 145.315 14.336 144.547 13.04C143.795 11.728 143.419 10.256 143.419 8.624C143.419 6.992 143.795 5.528 144.547 4.232C145.315 2.936 146.347 1.928 147.643 1.208C148.955 0.471999 150.387 0.103999 151.939 0.103999C153.507 0.103999 154.939 0.471999 156.235 1.208C157.547 1.928 158.579 2.936 159.331 4.232C160.083 5.528 160.459 6.992 160.459 8.624C160.459 10.256 160.083 11.728 159.331 13.04C158.579 14.336 157.547 15.352 156.235 16.088C154.939 16.808 153.507 17.168 151.939 17.168ZM151.939 14.792C153.043 14.792 154.027 14.544 154.891 14.048C155.755 13.536 156.427 12.816 156.907 11.888C157.403 10.944 157.651 9.856 157.651 8.624C157.651 7.392 157.403 6.312 156.907 5.384C156.427 4.456 155.755 3.744 154.891 3.248C154.027 2.752 153.043 2.504 151.939 2.504C150.835 2.504 149.851 2.752 148.987 3.248C148.123 3.744 147.443 4.456 146.947 5.384C146.467 6.312 146.227 7.392 146.227 8.624C146.227 9.856 146.467 10.944 146.947 11.888C147.443 12.816 148.123 13.536 148.987 14.048C149.851 14.544 150.835 14.792 151.939 14.792ZM176.856 17H174.12L165.888 4.544V17H163.152V0.295999H165.888L174.12 12.728V0.295999H176.856V17Z" fill="#F1ECE6"/>
</svg>
