<svg width="16" height="14" viewBox="0 0 16 14" fill="none" xmlns="http://www.w3.org/2000/svg">
<path d="M6.63443 1.74782C6.63451 1.7479 6.63459 1.74798 6.63467 1.74806L7.49787 2.63679L8 3.15378L8.50213 2.63679L9.36533 1.74806C9.36545 1.74794 9.36557 1.74782 9.36568 1.7477C10.0218 1.07428 10.9061 0.7 11.8235 0.7C12.7403 0.7 13.6241 1.07381 14.28 1.74641C14.9313 2.42485 15.3 3.34446 15.3 4.30679C15.3 5.26939 14.9311 6.18926 14.2795 6.86775C14.2791 6.86811 14.2788 6.86847 14.2784 6.86883L8.06778 13.2714C8.06758 13.2716 8.06737 13.2718 8.06716 13.272C8.05704 13.2822 8.0462 13.2892 8.03573 13.2936L8.30708 13.9389L8.03573 13.2936C8.02509 13.2981 8.01443 13.3001 8.00417 13.3V13.2999L7.99583 13.3C7.98557 13.3001 7.97491 13.2981 7.96427 13.2936L7.69292 13.9389L7.96427 13.2936C7.9538 13.2892 7.94296 13.2822 7.93285 13.272C7.93264 13.2718 7.93243 13.2716 7.93222 13.2714L1.72157 6.86883C1.72122 6.86847 1.72087 6.8681 1.72052 6.86774C1.06889 6.18925 0.7 5.26938 0.7 4.30679C0.7 3.34446 1.06868 2.42484 1.71997 1.74641C2.37595 1.0738 3.25966 0.7 4.17651 0.7C5.094 0.7 5.97831 1.07433 6.63443 1.74782Z" fill="#8F335A" stroke="#8F335A" stroke-width="1.4"/>
</svg>
