<svg width="40" height="40" viewBox="0 0 25 30" fill="none" xmlns="http://www.w3.org/2000/svg">
    <g clip-path="url(#clip0_153_7312)">
        <path d="M2 12.0967C2 9.80831 2 8.6641 2.5192 7.71556C3.0384 6.76703 3.98695 6.17834 5.88403 5.00095L7.88403 3.75969C9.88939 2.51511 10.8921 1.89282 12 1.89282C13.1079 1.89282 14.1106 2.51511 16.116 3.75969L18.116 5.00095C20.0131 6.17834 20.9616 6.76703 21.4808 7.71556C22 8.6641 22 9.80831 22 12.0967V13.6178C22 17.5187 22 19.4691 20.8284 20.681C19.6569 21.8928 17.7712 21.8928 14 21.8928H10C6.22876 21.8928 4.34315 21.8928 3.17157 20.681C2 19.4691 2 17.5187 2 13.6178V12.0967Z" stroke="#414141" stroke-opacity="0.501961" stroke-width="1.5"/>
        <path d="M15 17.8928H9" stroke="#414141" stroke-opacity="0.501961" stroke-width="1.5" stroke-linecap="round"/>
    </g>
    <defs>
        <clipPath id="clip0_153_7312">
            <rect width="32" height="32" fill="white" transform="translate(0 0.517822)"/>
        </clipPath>
    </defs>
</svg>
