<svg width="16" height="16" viewBox="0 0 16 16" fill="none" xmlns="http://www.w3.org/2000/svg">
<g clip-path="url(#clip0_123_2634)">
<path d="M1.33337 10.667C1.33337 8.78137 1.33337 7.83857 1.91916 7.25278C2.50495 6.66699 3.44776 6.66699 5.33337 6.66699H10.6667C12.5523 6.66699 13.4951 6.66699 14.0809 7.25278C14.6667 7.83857 14.6667 8.78137 14.6667 10.667C14.6667 12.5526 14.6667 13.4954 14.0809 14.0812C13.4951 14.667 12.5523 14.667 10.6667 14.667H5.33337C3.44776 14.667 2.50495 14.667 1.91916 14.0812C1.33337 13.4954 1.33337 12.5526 1.33337 10.667Z" stroke="#ABABAB"/>
<path d="M4 6.66671V5.33337C4 3.12424 5.79086 1.33337 8 1.33337C10.2091 1.33337 12 3.12424 12 5.33337V6.66671" stroke="#ABABAB" stroke-linecap="round"/>
</g>
<defs>
<clipPath id="clip0_123_2634">
<rect width="16" height="16" fill="white"/>
</clipPath>
</defs>
</svg>