<svg width="40" height="40" viewBox="0 0 24 30" fill="none" xmlns="http://www.w3.org/2000/svg">
    <path d="M12 22.2588C17.5228 22.2588 22 17.7816 22 12.2588C22 6.73594 17.5228 2.25879 12 2.25879C6.47715 2.25879 2 6.73594 2 12.2588C2 13.8585 2.37562 15.3704 3.04346 16.7113C3.22094 17.0676 3.28001 17.4749 3.17712 17.8594L2.58151 20.0854C2.32295 21.0518 3.20701 21.9358 4.17335 21.6773L6.39939 21.0817C6.78393 20.9788 7.19121 21.0379 7.54753 21.2153C8.88837 21.8832 10.4003 22.2588 12 22.2588Z" stroke="#414141" stroke-opacity="0.501961" stroke-width="1.5"/>
    <path d="M8 10.7588H16" stroke="#414141" stroke-opacity="0.501961" stroke-width="1.5" stroke-linecap="round"/>
    <path d="M8 14.2588H13.5" stroke="#414141" stroke-opacity="0.501961" stroke-width="1.5" stroke-linecap="round"/>
</svg>
