<svg width="65" height="65" viewBox="0 0 50 30" fill="none" xmlns="http://www.w3.org/2000/svg">
    <path d="M15.6923 6.11092C15.6736 6.67661 15.7665 7.24046 15.9657 7.77025C16.1649 8.30005 16.4665 8.78542 16.8532 9.19867C17.24 9.61191 17.7044 9.94492 18.2199 10.1787C18.7353 10.4125 19.2918 10.5424 19.8575 10.5611C20.4232 10.5798 20.987 10.487 21.5168 10.2878C22.0466 10.0886 22.532 9.78698 22.9452 9.4002C23.3585 9.01343 23.6915 8.54905 23.9253 8.03358C24.159 7.5181 24.289 6.96163 24.3077 6.39593C24.3264 5.83024 24.2335 5.26639 24.0343 4.7366C23.8352 4.2068 23.5336 3.72143 23.1468 3.30818C22.76 2.89494 22.2956 2.56193 21.7802 2.32816C21.2647 2.09438 20.7082 1.96443 20.1425 1.94572C19.5768 1.927 19.013 2.01989 18.4832 2.21909C17.9534 2.41828 17.468 2.71987 17.0548 3.10665C16.6415 3.49342 16.3085 3.9578 16.0747 4.47327C15.841 4.98875 15.711 5.54522 15.6923 6.11092Z" stroke="#414141" stroke-opacity="0.501961" stroke-width="1.875" stroke-linecap="round" stroke-linejoin="round"/>
    <path d="M28.6203 22.0571C27.9141 20.356 26.7182 18.9021 25.1838 17.8792C23.6494 16.8563 21.8455 16.3103 20.0001 16.3103C18.1548 16.3103 16.3508 16.8563 14.8165 17.8792C13.2821 18.9021 12.0862 20.356 11.38 22.0571" stroke="#414141" stroke-opacity="0.501961" stroke-width="1.875" stroke-linecap="round" stroke-linejoin="round"/>
</svg>