<svg width="12" height="14" viewBox="0 0 12 14" fill="none" xmlns="http://www.w3.org/2000/svg">
    <mask id="path-1-inside-1_174_3022" fill="white">
        <path d="M0.786105 14C0.651139 13.9996 0.518557 13.9648 0.401137 13.8989C0.279781 13.8314 0.178729 13.7331 0.108326 13.6142C0.0379222 13.4953 0.000695397 13.36 0.000455494 13.2222V1.81222C-0.0101652 1.3458 0.165306 0.894027 0.488841 0.554807C0.812377 0.215587 1.25791 0.0162513 1.72888 0H9.27112C9.74209 0.0162513 10.1876 0.215587 10.5112 0.554807C10.8347 0.894027 11.0102 1.3458 10.9995 1.81222V13.2222C10.9987 13.358 10.962 13.4911 10.8931 13.6085C10.8242 13.7258 10.7255 13.8232 10.6067 13.8911C10.4873 13.9594 10.3518 13.9953 10.2139 13.9953C10.076 13.9953 9.94051 13.9594 9.82107 13.8911L5.36644 11.3944L1.17893 13.8833C1.06073 13.956 0.925171 13.9962 0.786105 14Z"/>
    </mask>
    <path d="M0.786105 14C0.651139 13.9996 0.518557 13.9648 0.401137 13.8989C0.279781 13.8314 0.178729 13.7331 0.108326 13.6142C0.0379222 13.4953 0.000695397 13.36 0.000455494 13.2222V1.81222C-0.0101652 1.3458 0.165306 0.894027 0.488841 0.554807C0.812377 0.215587 1.25791 0.0162513 1.72888 0H9.27112C9.74209 0.0162513 10.1876 0.215587 10.5112 0.554807C10.8347 0.894027 11.0102 1.3458 10.9995 1.81222V13.2222C10.9987 13.358 10.962 13.4911 10.8931 13.6085C10.8242 13.7258 10.7255 13.8232 10.6067 13.8911C10.4873 13.9594 10.3518 13.9953 10.2139 13.9953C10.076 13.9953 9.94051 13.9594 9.82107 13.8911L5.36644 11.3944L1.17893 13.8833C1.06073 13.956 0.925171 13.9962 0.786105 14Z" fill="#F1B825" stroke="#F1B825" stroke-width="2.6" mask="url(#path-1-inside-1_174_3022)"/>
</svg>
