<svg width="12" height="14" viewBox="0 0 12 14" fill="none" xmlns="http://www.w3.org/2000/svg">
<path fill-rule="evenodd" clip-rule="evenodd" d="M2.66318 -0.00012207H9.46362C10.5904 -0.00012207 11.5038 0.939383 11.5038 2.09832V13.29C11.5038 13.859 10.8785 14.1899 10.4284 13.8592L6.0634 10.6516L1.69836 13.8592C1.26969 14.1741 0.682194 13.889 0.627214 13.3696L0.623047 13.29V2.09832C0.623047 0.939383 1.53645 -0.00012207 2.66318 -0.00012207ZM9.54286 1.40363L9.46355 1.39892H2.66311C2.28753 1.39892 1.98306 1.71209 1.98306 2.0984V11.9303L5.66806 9.2235C5.88086 9.06715 6.15943 9.05152 6.38539 9.17659L6.4586 9.2235L10.1436 11.931V2.0984C10.1436 1.73968 9.88107 1.44403 9.54286 1.40363Z" fill="#A3A3A3"/>
</svg>
