<svg width="26" height="26" viewBox="0 0 26 26" fill="none" xmlns="http://www.w3.org/2000/svg">
    <path fill-rule="evenodd" clip-rule="evenodd" d="M20.6409 13.0001C20.6409 13.6257 20.1338 14.1327 19.5082 14.1327C18.8827 14.1327 18.3756 13.6257 18.3756 13.0001C18.3756 12.3745 18.8827 11.8675 19.5082 11.8675C20.1338 11.8675 20.6409 12.3745 20.6409 13.0001ZM20.1878 15.3981C21.2337 15.1023 22 14.1407 22 13.0001C22 11.8595 21.2337 10.898 20.1878 10.6021L20.1878 5.75131C20.1878 5.37601 19.8835 5.07174 19.5082 5.07174C19.1329 5.07174 18.8287 5.37601 18.8287 5.75131L18.8287 10.6021C17.7828 10.898 17.0165 11.8595 17.0165 13.0001C17.0165 14.1407 17.7828 15.1023 18.8287 15.3981L18.8287 20.2489C18.8287 20.6242 19.1329 20.9285 19.5082 20.9285C19.8835 20.9285 20.1878 20.6242 20.1878 20.2489L20.1878 15.3981ZM14.2982 7.56351C14.2982 8.18908 13.7911 8.69613 13.1655 8.69613C12.54 8.69613 12.0329 8.18908 12.0329 7.56351C12.0329 6.93794 12.54 6.43089 13.1655 6.43089C13.7911 6.43089 14.2982 6.93794 14.2982 7.56351ZM13.8451 9.9615C14.891 9.66566 15.6573 8.70411 15.6573 7.56351C15.6573 6.18733 14.5417 5.07174 13.1655 5.07174C11.7894 5.07174 10.6738 6.18733 10.6738 7.56351C10.6738 8.70411 11.4401 9.66566 12.486 9.9615L12.486 20.2489C12.486 20.6242 12.7902 20.9285 13.1655 20.9285C13.5408 20.9285 13.8451 20.6242 13.8451 20.2489L13.8451 9.9615ZM7.95547 18.4367C7.95547 19.0622 7.44842 19.5693 6.82285 19.5693C6.19728 19.5693 5.69022 19.0622 5.69022 18.4367C5.69022 17.8112 6.19728 17.3041 6.82285 17.3041C7.44842 17.3041 7.95547 17.8112 7.95547 18.4367ZM6.82285 20.9285C8.19903 20.9285 9.31462 19.8129 9.31462 18.4367C9.31462 17.2961 8.54833 16.3345 7.50242 16.0387L7.50242 5.75131C7.50242 5.37601 7.19815 5.07174 6.82285 5.07174C6.44754 5.07174 6.14327 5.37601 6.14327 5.75131L6.14327 16.0387C5.09736 16.3345 4.33107 17.2961 4.33107 18.4367C4.33107 19.8129 5.44666 20.9285 6.82285 20.9285Z" fill="url(#paint0_linear_1746_4)"/>
    <defs>
        <linearGradient id="paint0_linear_1746_4" x1="22" y1="13.0001" x2="4.33107" y2="13.0001" gradientUnits="userSpaceOnUse">
            <stop stop-color="#FF8D00"/>
            <stop offset="1" stop-color="#FFDE1A"/>
        </linearGradient>
    </defs>
</svg>
