<svg width="14" height="14" viewBox="0 0 14 14" fill="none" xmlns="http://www.w3.org/2000/svg">
<path fill-rule="evenodd" clip-rule="evenodd" d="M0.425935 4.48826L0.351772 4.51918C-0.119334 4.74944 -0.123483 5.44678 0.377742 5.66955L5.87708 8.11342L8.32159 13.6134C8.55549 14.1397 9.31262 14.1088 9.50288 13.5652L13.9512 0.855806C13.9551 0.845027 13.9587 0.834164 13.9621 0.823227C14.1102 0.343863 13.6666 -0.108449 13.1881 0.0231628C13.1685 0.0284474 13.149 0.0346895 13.1298 0.0418892L0.425935 4.48826ZM10.9347 2.15708L2.35939 5.15844L6.21821 6.87354L10.9347 2.15708ZM7.11757 7.77278L8.83219 11.6312L11.8331 3.05727L7.11757 7.77278Z" fill="#A3A3A3"/>
</svg>
