<svg width="97" height="16" viewBox="0 0 97 16" fill="none" xmlns="http://www.w3.org/2000/svg">
<rect width="97" height="16" rx="8" fill="url(#paint0_linear_153_6973)"/>
<rect x="0.75" y="0.75" width="48.5" height="14.5" rx="7.25" fill="#2BAB47" stroke="#F5F4F4" stroke-width="1.5"/>
<path d="M9.80684 5.23532V7.18556H12.1012V8.07464H9.80684V10.1109H12.388V11H8.717V4.34624H12.388V5.23532H9.80684ZM15.7667 10.0249L17.258 5.73244H18.4148L16.4072 11H15.107L13.109 5.73244H14.2753L15.7667 10.0249ZM24.0664 8.23716C24.0664 8.43473 24.0537 8.61319 24.0282 8.77252H20.0034C20.0353 9.19316 20.1914 9.53095 20.4718 9.78588C20.7523 10.0408 21.0964 10.1683 21.5043 10.1683C22.0907 10.1683 22.5049 9.92291 22.7471 9.43216H23.923C23.7637 9.91653 23.4737 10.3149 23.053 10.6272C22.6388 10.9331 22.1225 11.086 21.5043 11.086C21.0008 11.086 20.5483 10.9745 20.1468 10.7514C19.7517 10.522 19.4394 10.2033 19.2099 9.79544C18.9869 9.38117 18.8753 8.90317 18.8753 8.36144C18.8753 7.81971 18.9837 7.34489 19.2004 6.937C19.4234 6.52273 19.7325 6.20407 20.1277 5.981C20.5292 5.75793 20.9881 5.6464 21.5043 5.6464C22.0014 5.6464 22.4444 5.75475 22.8332 5.97144C23.2219 6.18813 23.5247 6.49405 23.7414 6.8892C23.9581 7.27797 24.0664 7.72729 24.0664 8.23716ZM22.9288 7.893C22.9224 7.49148 22.779 7.16963 22.4986 6.92744C22.2181 6.68525 21.8708 6.56416 21.4565 6.56416C21.0805 6.56416 20.7586 6.68525 20.491 6.92744C20.2233 7.16325 20.0639 7.48511 20.013 7.893H22.9288ZM27.7966 5.6464C28.2109 5.6464 28.5805 5.73244 28.9056 5.90452C29.237 6.0766 29.4951 6.33153 29.6799 6.66932C29.8647 7.00711 29.9572 7.415 29.9572 7.893V11H28.8769V8.05552C28.8769 7.58389 28.759 7.2238 28.5232 6.97524C28.2873 6.72031 27.9655 6.59284 27.5576 6.59284C27.1497 6.59284 26.8247 6.72031 26.5825 6.97524C26.3467 7.2238 26.2288 7.58389 26.2288 8.05552V11H25.1389V5.73244H26.2288V6.33472C26.4072 6.11803 26.6335 5.94913 26.9075 5.82804C27.1879 5.70695 27.4843 5.6464 27.7966 5.6464ZM32.6188 6.62152V9.53732C32.6188 9.73489 32.6634 9.87829 32.7526 9.96752C32.8482 10.0504 33.0076 10.0918 33.2306 10.0918H33.8998V11H33.0394C32.5487 11 32.1727 10.8853 31.9114 10.6558C31.65 10.4264 31.5194 10.0536 31.5194 9.53732V6.62152H30.898V5.73244H31.5194V4.42272H32.6188V5.73244H33.8998V6.62152H32.6188ZM36.8163 11.086C36.402 11.086 36.0292 11.0127 35.6978 10.8662C35.3727 10.7132 35.1146 10.5093 34.9234 10.2543C34.7322 9.99301 34.6303 9.70303 34.6175 9.38436H35.7456C35.7647 9.60743 35.8699 9.79544 36.0611 9.9484C36.2586 10.095 36.504 10.1683 36.7972 10.1683C37.1031 10.1683 37.3389 10.1109 37.5046 9.9962C37.6767 9.87511 37.7627 9.72215 37.7627 9.53732C37.7627 9.33975 37.6671 9.19316 37.4759 9.09756C37.2911 9.00196 36.9948 8.8968 36.5869 8.78208C36.1917 8.67373 35.8699 8.56857 35.6213 8.4666C35.3727 8.36463 35.1561 8.20848 34.9712 7.99816C34.7928 7.78784 34.7035 7.5106 34.7035 7.16644C34.7035 6.88601 34.7864 6.63108 34.9521 6.40164C35.1178 6.16583 35.3536 5.981 35.6595 5.84716C35.9718 5.71332 36.3287 5.6464 36.7303 5.6464C37.3294 5.6464 37.8105 5.79936 38.1738 6.10528C38.5435 6.40483 38.7411 6.81591 38.7665 7.33852H37.6767C37.6576 7.10271 37.562 6.91469 37.3899 6.77448C37.2178 6.63427 36.9852 6.56416 36.692 6.56416C36.4052 6.56416 36.1853 6.61833 36.0324 6.72668C35.8794 6.83503 35.8029 6.97843 35.8029 7.15688C35.8029 7.29709 35.8539 7.415 35.9559 7.5106C36.0579 7.6062 36.1822 7.68268 36.3287 7.74004C36.4753 7.79103 36.692 7.85795 36.9788 7.9408C37.3612 8.04277 37.6735 8.14793 37.9157 8.25628C38.1643 8.35825 38.3778 8.51121 38.5562 8.71516C38.7347 8.91911 38.8271 9.18997 38.8335 9.52776C38.8335 9.82731 38.7506 10.095 38.5849 10.3308C38.4192 10.5666 38.1834 10.7514 37.8775 10.8853C37.5779 11.0191 37.2242 11.086 36.8163 11.086Z" fill="white"/>
<path d="M61.3632 6.33472C61.3632 6.67251 61.2835 6.99117 61.1242 7.29072C60.9648 7.59027 60.7099 7.83564 60.3594 8.02684C60.0088 8.21167 59.5595 8.30408 59.0114 8.30408H57.8068V11H56.717V4.3558H59.0114C59.5213 4.3558 59.9515 4.44503 60.302 4.62348C60.6589 4.79556 60.9234 5.03137 61.0955 5.33092C61.2739 5.63047 61.3632 5.96507 61.3632 6.33472ZM59.0114 7.415C59.4257 7.415 59.7348 7.32259 59.9387 7.13776C60.1427 6.94656 60.2446 6.67888 60.2446 6.33472C60.2446 5.60816 59.8336 5.24488 59.0114 5.24488H57.8068V7.415H59.0114ZM67.2304 8.23716C67.2304 8.43473 67.2176 8.61319 67.1921 8.77252H63.1674C63.1993 9.19316 63.3554 9.53095 63.6358 9.78588C63.9163 10.0408 64.2604 10.1683 64.6683 10.1683C65.2547 10.1683 65.6689 9.92291 65.9111 9.43216H67.087C66.9277 9.91653 66.6377 10.3149 66.217 10.6272C65.8028 10.9331 65.2865 11.086 64.6683 11.086C64.1648 11.086 63.7123 10.9745 63.3108 10.7514C62.9156 10.522 62.6033 10.2033 62.3739 9.79544C62.1508 9.38117 62.0393 8.90317 62.0393 8.36144C62.0393 7.81971 62.1477 7.34489 62.3643 6.937C62.5874 6.52273 62.8965 6.20407 63.2917 5.981C63.6932 5.75793 64.1521 5.6464 64.6683 5.6464C65.1654 5.6464 65.6084 5.75475 65.9971 5.97144C66.3859 6.18813 66.6887 6.49405 66.9053 6.8892C67.122 7.27797 67.2304 7.72729 67.2304 8.23716ZM66.0927 7.893C66.0864 7.49148 65.943 7.16963 65.6625 6.92744C65.3821 6.68525 65.0348 6.56416 64.6205 6.56416C64.2445 6.56416 63.9226 6.68525 63.6549 6.92744C63.3873 7.16325 63.2279 7.48511 63.1769 7.893H66.0927ZM70.5877 11.086C70.0906 11.086 69.6413 10.9745 69.2398 10.7514C68.8383 10.522 68.5228 10.2033 68.2933 9.79544C68.0639 9.38117 67.9492 8.90317 67.9492 8.36144C67.9492 7.82608 68.0671 7.35127 68.3029 6.937C68.5387 6.52273 68.8606 6.20407 69.2685 5.981C69.6764 5.75793 70.132 5.6464 70.6355 5.6464C71.139 5.6464 71.5947 5.75793 72.0026 5.981C72.4105 6.20407 72.7324 6.52273 72.9682 6.937C73.204 7.35127 73.3219 7.82608 73.3219 8.36144C73.3219 8.8968 73.2008 9.37161 72.9586 9.78588C72.7164 10.2001 72.385 10.522 71.9644 10.7514C71.5501 10.9745 71.0912 11.086 70.5877 11.086ZM70.5877 10.1396C70.8682 10.1396 71.1295 10.0727 71.3717 9.93884C71.6202 9.805 71.821 9.60424 71.9739 9.33656C72.1269 9.06888 72.2034 8.74384 72.2034 8.36144C72.2034 7.97904 72.1301 7.65719 71.9835 7.39588C71.8369 7.1282 71.6425 6.92744 71.4003 6.7936C71.1582 6.65976 70.8968 6.59284 70.6164 6.59284C70.336 6.59284 70.0747 6.65976 69.8325 6.7936C69.5967 6.92744 69.4087 7.1282 69.2685 7.39588C69.1282 7.65719 69.0581 7.97904 69.0581 8.36144C69.0581 8.92867 69.2015 9.36843 69.4883 9.68072C69.7815 9.98664 70.148 10.1396 70.5877 10.1396ZM75.4891 6.5068C75.6739 6.26461 75.9257 6.06067 76.2443 5.89496C76.563 5.72925 76.9231 5.6464 77.3246 5.6464C77.7835 5.6464 78.201 5.76112 78.577 5.99056C78.9594 6.21363 79.2589 6.52911 79.4756 6.937C79.6923 7.34489 79.8007 7.81333 79.8007 8.34232C79.8007 8.87131 79.6923 9.34612 79.4756 9.76676C79.2589 10.181 78.9594 10.5061 78.577 10.7419C78.201 10.9713 77.7835 11.086 77.3246 11.086C76.9231 11.086 76.5662 11.0064 76.2539 10.847C75.9416 10.6813 75.6867 10.4774 75.4891 10.2352V13.5047H74.3993V5.73244H75.4891V6.5068ZM78.6917 8.34232C78.6917 7.97904 78.6152 7.66675 78.4623 7.40544C78.3157 7.13776 78.1181 6.937 77.8695 6.80316C77.6274 6.66295 77.3661 6.59284 77.0856 6.59284C76.8116 6.59284 76.5503 6.66295 76.3017 6.80316C76.0595 6.94337 75.8619 7.14732 75.709 7.415C75.5624 7.68268 75.4891 7.99816 75.4891 8.36144C75.4891 8.72472 75.5624 9.04339 75.709 9.31744C75.8619 9.58512 76.0595 9.78907 76.3017 9.92928C76.5503 10.0695 76.8116 10.1396 77.0856 10.1396C77.3661 10.1396 77.6274 10.0695 77.8695 9.92928C78.1181 9.78269 78.3157 9.57237 78.4623 9.29832C78.6152 9.02427 78.6917 8.7056 78.6917 8.34232ZM81.9682 3.9256V11H80.8784V3.9256H81.9682ZM88.2269 8.23716C88.2269 8.43473 88.2142 8.61319 88.1887 8.77252H84.1639C84.1958 9.19316 84.3519 9.53095 84.6324 9.78588C84.9128 10.0408 85.2569 10.1683 85.6648 10.1683C86.2512 10.1683 86.6654 9.92291 86.9076 9.43216H88.0835C87.9242 9.91653 87.6342 10.3149 87.2136 10.6272C86.7993 10.9331 86.283 11.086 85.6648 11.086C85.1613 11.086 84.7088 10.9745 84.3073 10.7514C83.9122 10.522 83.5999 10.2033 83.3704 9.79544C83.1474 9.38117 83.0358 8.90317 83.0358 8.36144C83.0358 7.81971 83.1442 7.34489 83.3609 6.937C83.5839 6.52273 83.893 6.20407 84.2882 5.981C84.6897 5.75793 85.1486 5.6464 85.6648 5.6464C86.162 5.6464 86.6049 5.75475 86.9937 5.97144C87.3824 6.18813 87.6852 6.49405 87.9019 6.8892C88.1186 7.27797 88.2269 7.72729 88.2269 8.23716ZM87.0893 7.893C87.0829 7.49148 86.9395 7.16963 86.6591 6.92744C86.3786 6.68525 86.0313 6.56416 85.617 6.56416C85.241 6.56416 84.9192 6.68525 84.6515 6.92744C84.3838 7.16325 84.2245 7.48511 84.1735 7.893H87.0893Z" fill="white"/>
<defs>
<linearGradient id="paint0_linear_153_6973" x1="3.46429" y1="8.42105" x2="97" y2="8.42105" gradientUnits="userSpaceOnUse">
<stop offset="0.359375" stop-color="#FF8D00"/>
<stop offset="1" stop-color="#FFE600"/>
</linearGradient>
<linearGradient id="paint1_linear_153_6973" x1="2.5" y1="8" x2="48" y2="8" gradientUnits="userSpaceOnUse">
<stop stop-color="#FF8D00"/>
<stop offset="1" stop-color="#FFDE1A"/>
</linearGradient>
</defs>
</svg>
