<svg width="127" height="127" viewBox="0 0 127 127" fill="none" xmlns="http://www.w3.org/2000/svg">
<path d="M60.1135 0C80.332 0 96.7215 16.2942 96.7215 36.3984C96.7236 41.6663 95.5771 46.8712 93.3618 51.6506C91.1464 56.43 87.9156 60.6689 83.8944 64.0719C85.6089 64.9228 87.171 65.7737 88.5807 66.6309C91.616 68.4725 94.7657 70.7585 98.0423 73.4826C98.4842 73.8494 98.8492 74.3 99.1161 74.8085C99.383 75.3171 99.5465 75.8734 99.5973 76.4454C99.6481 77.0175 99.5851 77.594 99.4119 78.1415C99.2387 78.6891 98.9588 79.197 98.5884 79.6358C97.838 80.5265 96.7655 81.0839 95.6054 81.1862C94.4453 81.2885 93.2918 80.9275 92.3971 80.1819C89.7531 77.9455 86.9472 75.908 84.0023 74.0859C81.1346 72.3945 78.1536 70.903 75.0805 69.6218C70.3712 71.7235 65.2706 72.8055 60.1135 72.7968C54.4283 72.8053 48.8192 71.49 43.7304 68.9551L43.4637 69.0821C31.0811 73.8827 22.045 80.982 16.2093 90.4055C10.3546 99.8607 7.96064 110.427 9.0338 122.245C9.08345 122.818 9.01965 123.395 8.84604 123.943C8.67243 124.491 8.39243 125 8.02205 125.44C7.65166 125.88 7.19817 126.243 6.6875 126.507C6.17684 126.772 5.61903 126.933 5.04598 126.982C3.89002 127.088 2.73926 126.731 1.84634 125.989C0.953418 125.247 0.391318 124.181 0.283449 123.026C-0.954808 109.36 1.86461 96.9079 8.729 85.8271C14.7615 76.0734 23.6325 68.4915 35.2341 63.0813C31.5357 59.6904 28.5836 55.567 26.5655 50.9732C24.5474 46.3795 23.5075 41.4159 23.5119 36.3984C23.5119 16.2942 39.895 0 60.1135 0ZM107.11 80.601C109.523 80.601 111.479 82.5695 111.479 84.9889V96.1142H122.604C123.18 96.1125 123.751 96.2244 124.283 96.4434C124.816 96.6625 125.3 96.9844 125.708 97.3907C126.117 97.7971 126.441 98.2799 126.662 98.8116C126.883 99.3433 126.998 99.9134 126.998 100.489C126.993 101.65 126.528 102.762 125.704 103.58C124.88 104.398 123.765 104.855 122.604 104.852H111.479V115.983C111.481 117.144 111.022 118.259 110.202 119.081C109.383 119.904 108.271 120.368 107.11 120.371C105.949 120.368 104.837 119.904 104.018 119.081C103.199 118.259 102.74 117.144 102.741 115.983V104.852H91.616C90.4551 104.855 89.3402 104.398 88.5163 103.58C87.6925 102.762 87.2269 101.65 87.2218 100.489C87.2218 98.0763 89.1903 96.1205 91.616 96.1205L102.741 96.1142V84.9889C102.74 83.8279 103.199 82.7138 104.018 81.8911C104.837 81.0684 105.949 80.6044 107.11 80.601ZM60.1199 8.73765C44.7528 8.73765 32.294 21.1202 32.294 36.3984C32.294 51.6766 44.7528 64.0655 60.1135 64.0655C75.4806 64.0655 87.933 51.683 87.933 36.3984C87.933 21.1202 75.4806 8.73765 60.1199 8.73765Z" fill="#F1ECE6"/>
</svg>
